# xmcd
# Copyright (C) 1995-1998 Ti Kan
#
# Track frame offsets:
#       150
#       17992
#       36048
#       55370
#       74670
#       95849
#       116986
#       128465
#       140532
#       165732
#       195514
#       210388
#       224690
#       238112
#       264147
#       279050
#       293112
#       305469
#
# Disc length: 4234 seconds
#
# Revision: 0
# Processed by: cddbd v1.5PL3 Copyright (c) Steve Scherf et al.
# Submitted via: CD-Transfer v1.0
#
DISCID=13108812
DTITLE=Razni Izvoðaæi - Dancing Bear 06-2004
DYEAR=04
DGENRE=
TTITLE0=Matinee
TTITLE1=King Of The World
TTITLE2=Befell
TTITLE3=No Long Journey Home
TTITLE4=Aftermath
TTITLE5=Karma
TTITLE6=Change My Mind
TTITLE7=Good Reason
TTITLE8=Signs Of Life
TTITLE9=These Are Your Friends
TTITLE10=Lovertrap
TTITLE11=Sascha
TTITLE12=Sic Transit Gloria
TTITLE13=Wedding Song No.3
TTITLE14=Before I Hit The Wall
TTITLE15=Miss Take
TTITLE16=Clinic
TTITLE17=Does Compute
EXTD=
EXTT0=
EXTT1=
EXTT2=
EXTT3=
EXTT4=
EXTT5=
EXTT6=
EXTT7=
EXTT8=
EXTT9=
EXTT10=
EXTT11=
EXTT12=
EXTT13=
EXTT14=
EXTT15=
EXTT16=
EXTT17=
PLAYORDER=
